# Blender v3.5.1 OBJ File: 'car.blend'
# www.blender.org
o Cube_Cube.001
v 1.928913 -0.484977 -1.250000
v 1.940196 0.077977 -1.250000
v 1.928913 -0.484977 1.250000
v 1.940196 0.077977 1.250000
v -2.148926 -0.800000 -1.250000
v -2.148926 0.373311 -1.250000
v -2.148926 -0.800000 1.250000
v -2.148926 0.373311 1.250000
v 1.249770 -0.800000 1.250000
v 1.249770 0.373311 1.250000
v 1.249770 -0.800000 -1.250000
v 1.249770 0.373311 -1.250000
v 0.478777 0.373311 1.250000
v 0.478777 -0.800000 -1.250000
v 0.478777 -0.800000 1.250000
v 0.478777 0.373311 -1.250000
v -0.001865 1.154549 0.794568
v -1.627666 1.138798 0.794568
v -1.627666 1.138798 -0.794568
v -0.001865 1.154549 -0.794568
v -2.804512 0.192276 1.250000
v -2.804512 -0.618964 1.250000
v -2.804512 -0.618964 -1.250000
v -2.804512 0.192276 -1.250000
v -2.916082 0.034245 1.250000
v -2.916082 -0.460934 1.250000
v -2.916082 -0.460934 -1.250000
v -2.916082 0.034245 -1.250000
vt 0.625000 0.000000
vt 0.375000 0.250000
vt 0.375000 0.000000
vt 0.625000 0.347150
vt 0.375000 0.500000
vt 0.375000 0.347150
vt 0.625000 0.750000
vt 0.375000 0.750000
vt 0.625000 0.750000
vt 0.625000 0.947697
vt 0.375000 1.000000
vt 0.375000 0.947697
vt 0.222150 0.750000
vt 0.222150 0.500000
vt 0.875000 0.500000
vt 0.822697 0.750000
vt 0.822697 0.500000
vt 0.777850 0.750000
vt 0.777850 0.500000
vt 0.177303 0.500000
vt 0.125000 0.750000
vt 0.125000 0.500000
vt 0.625000 0.902850
vt 0.375000 0.902850
vt 0.625000 0.302303
vt 0.375000 0.302303
vt 0.375000 0.750000
vt 0.625000 0.750000
vt 0.625000 0.902850
vt 0.177303 0.750000
vt 0.777850 0.500000
vt 0.625000 0.500000
vt 0.625000 0.500000
vt 0.625000 0.750000
vt 0.625000 0.500000
vt 0.375000 0.500000
vt 0.625000 0.500000
vt 0.375000 0.750000
vt 0.375000 0.500000
vt 0.625000 0.250000
vt 0.625000 1.000000
vt 0.875000 0.750000
vt 0.777850 0.750000
vt 0.625000 0.347150
vn 0.9998 -0.0200 0.0000
vn 0.0000 0.0000 1.0000
vn 0.0000 0.0000 -1.0000
vn 0.0000 -1.0000 0.0000
vn 0.3933 0.9194 0.0000
vn 0.0000 1.0000 0.0000
vn 0.4208 -0.9072 0.0000
vn -0.0049 0.5014 -0.8652
vn -0.0097 1.0000 0.0000
vn -0.8266 0.5628 0.0000
vn 0.0000 0.5113 0.8594
vn 0.8517 0.5240 0.0000
vn -0.2662 -0.9639 0.0000
vn -0.2662 0.9639 0.0000
vn -1.0000 0.0000 0.0000
vn -0.8169 -0.5768 0.0000
vn -0.8169 0.5768 0.0000
vn 0.0000 0.5113 -0.8594
vn -0.0049 0.5014 0.8652
s off
f 2/1/1 3/2/1 1/3/1
f 13/4/2 7/5/2 15/6/2
f 6/7/3 23/8/3 24/9/3
f 12/10/3 1/11/3 11/12/3
f 7/5/4 14/13/4 15/14/4
f 4/15/5 12/16/5 10/17/5
f 10/17/6 16/18/6 13/19/6
f 9/20/7 1/21/7 3/22/7
f 16/23/3 11/12/3 14/24/3
f 3/2/2 10/25/2 9/26/2
f 6/7/3 14/24/3 5/27/3
f 16/23/8 19/28/8 20/29/8
f 15/14/4 11/30/4 9/20/4
f 10/25/2 15/6/2 9/26/2
f 17/31/9 19/28/9 18/32/9
f 8/33/10 19/28/10 6/7/10
f 13/4/11 18/32/11 8/33/11
f 16/18/12 17/31/12 13/19/12
f 23/8/3 28/34/3 24/9/3
f 7/5/13 23/8/13 5/27/13
f 6/7/14 21/35/14 8/33/14
f 8/33/2 22/36/2 7/5/2
f 25/37/15 27/38/15 26/39/15
f 22/36/16 27/38/16 23/8/16
f 24/9/17 25/37/17 21/35/17
f 21/35/2 26/39/2 22/36/2
f 2/1/1 4/40/1 3/2/1
f 13/4/2 8/33/2 7/5/2
f 6/7/3 5/27/3 23/8/3
f 12/10/3 2/41/3 1/11/3
f 7/5/4 5/27/4 14/13/4
f 4/15/5 2/42/5 12/16/5
f 10/17/6 12/16/6 16/18/6
f 9/20/7 11/30/7 1/21/7
f 16/23/3 12/10/3 11/12/3
f 3/2/2 4/40/2 10/25/2
f 6/7/3 16/23/3 14/24/3
f 16/23/18 6/7/18 19/28/18
f 15/14/4 14/13/4 11/30/4
f 10/25/2 13/4/2 15/6/2
f 17/31/9 20/43/9 19/28/9
f 8/33/10 18/32/10 19/28/10
f 13/4/19 17/44/19 18/32/19
f 16/18/12 20/43/12 17/31/12
f 23/8/3 27/38/3 28/34/3
f 7/5/13 22/36/13 23/8/13
f 6/7/14 24/9/14 21/35/14
f 8/33/2 21/35/2 22/36/2
f 25/37/15 28/34/15 27/38/15
f 22/36/16 26/39/16 27/38/16
f 24/9/17 28/34/17 25/37/17
f 21/35/2 25/37/2 26/39/2
o Cylinder
v 0.821666 -0.266072 1.346489
v 0.821666 -0.266072 -1.377216
v 0.744803 -0.273642 1.346489
v 0.744803 -0.273643 -1.377216
v 0.670894 -0.296063 1.346489
v 0.670894 -0.296063 -1.377216
v 0.602780 -0.332471 1.346489
v 0.602780 -0.332471 -1.377216
v 0.543076 -0.381468 1.346489
v 0.543076 -0.381468 -1.377216
v 0.494079 -0.441171 1.346489
v 0.494079 -0.441171 -1.377216
v 0.457671 -0.509286 1.346489
v 0.457671 -0.509286 -1.377216
v 0.435251 -0.583195 1.346489
v 0.435251 -0.583195 -1.377216
v 0.427681 -0.660058 1.346489
v 0.427681 -0.660058 -1.377216
v 0.435251 -0.736920 1.346489
v 0.435251 -0.736920 -1.377216
v 0.457671 -0.810829 1.346489
v 0.457671 -0.810829 -1.377216
v 0.494079 -0.878944 1.346489
v 0.494079 -0.878944 -1.377216
v 0.543076 -0.938648 1.346489
v 0.543076 -0.938648 -1.377216
v 0.602780 -0.987645 1.346489
v 0.602780 -0.987645 -1.377216
v 0.670894 -1.024053 1.346489
v 0.670894 -1.024053 -1.377216
v 0.744803 -1.046473 1.346489
v 0.744803 -1.046473 -1.377216
v 0.821666 -1.054043 1.346489
v 0.821666 -1.054043 -1.377216
v 0.898529 -1.046473 1.346489
v 0.898529 -1.046473 -1.377216
v 0.972438 -1.024053 1.346489
v 0.972438 -1.024053 -1.377216
v 1.040553 -0.987645 1.346489
v 1.040553 -0.987645 -1.377216
v 1.100256 -0.938648 1.346489
v 1.100256 -0.938648 -1.377216
v 1.149253 -0.878944 1.346489
v 1.149253 -0.878944 -1.377216
v 1.185661 -0.810829 1.346489
v 1.185661 -0.810829 -1.377216
v 1.208081 -0.736920 1.346489
v 1.208081 -0.736920 -1.377216
v 1.215652 -0.660058 1.346489
v 1.215652 -0.660058 -1.377216
v 1.208081 -0.583195 1.346489
v 1.208081 -0.583195 -1.377216
v 1.185661 -0.509286 1.346489
v 1.185661 -0.509286 -1.377216
v 1.149253 -0.441171 1.346489
v 1.149253 -0.441171 -1.377216
v 1.100256 -0.381468 1.346489
v 1.100256 -0.381468 -1.377216
v 1.040553 -0.332471 1.346489
v 1.040553 -0.332471 -1.377216
v 0.972438 -0.296063 1.346489
v 0.972438 -0.296063 -1.377216
v 0.898529 -0.273642 1.346489
v 0.898529 -0.273643 -1.377216
v 0.821666 -0.266072 1.140302
v 0.744803 -0.273642 1.140302
v 0.670894 -0.296063 1.140302
v 0.602780 -0.332471 1.140302
v 0.543076 -0.381468 1.140302
v 0.494079 -0.441171 1.140302
v 0.457671 -0.509286 1.140302
v 0.435251 -0.583195 1.140302
v 0.427681 -0.660058 1.140302
v 0.435251 -0.736920 1.140302
v 0.457671 -0.810829 1.140302
v 0.494079 -0.878944 1.140302
v 0.543076 -0.938648 1.140302
v 0.602780 -0.987645 1.140302
v 0.670894 -1.024053 1.140302
v 0.744803 -1.046473 1.140302
v 0.821666 -1.054043 1.140302
v 0.898529 -1.046473 1.140302
v 0.972438 -1.024053 1.140302
v 1.040553 -0.987645 1.140302
v 1.100256 -0.938648 1.140302
v 1.149253 -0.878944 1.140302
v 1.185661 -0.810829 1.140302
v 1.208081 -0.736920 1.140302
v 1.215652 -0.660058 1.140302
v 1.208081 -0.583195 1.140302
v 1.185661 -0.509286 1.140302
v 1.149253 -0.441171 1.140302
v 1.100256 -0.381468 1.140302
v 1.040553 -0.332471 1.140302
v 0.972438 -0.296063 1.140302
v 0.898529 -0.273642 1.140302
v 0.821666 -0.266072 -1.157942
v 0.744803 -0.273642 -1.157942
v 0.670894 -0.296063 -1.157942
v 0.602780 -0.332471 -1.157942
v 0.543076 -0.381468 -1.157942
v 0.494079 -0.441171 -1.157942
v 0.457671 -0.509286 -1.157942
v 0.435251 -0.583195 -1.157942
v 0.427681 -0.660058 -1.157942
v 0.435251 -0.736920 -1.157942
v 0.457671 -0.810829 -1.157942
v 0.494079 -0.878944 -1.157942
v 0.543076 -0.938648 -1.157942
v 0.602780 -0.987645 -1.157942
v 0.670894 -1.024053 -1.157942
v 0.744803 -1.046473 -1.157942
v 0.821666 -1.054043 -1.157942
v 0.898529 -1.046473 -1.157942
v 0.972438 -1.024053 -1.157942
v 1.040553 -0.987645 -1.157942
v 1.100256 -0.938648 -1.157942
v 1.149253 -0.878944 -1.157942
v 1.185661 -0.810829 -1.157942
v 1.208081 -0.736920 -1.157942
v 1.215652 -0.660058 -1.157942
v 1.208081 -0.583195 -1.157942
v 1.185661 -0.509286 -1.157942
v 1.149253 -0.441171 -1.157942
v 1.100256 -0.381468 -1.157942
v 1.040553 -0.332471 -1.157942
v 0.972438 -0.296063 -1.157942
v 0.898529 -0.273642 -1.157942
v 0.799770 -0.549978 -0.008820
v 0.778715 -0.556365 -0.008820
v 0.759311 -0.566737 -0.008820
v 0.742303 -0.580695 -0.008820
v 0.728345 -0.597703 -0.008820
v 0.717973 -0.617107 -0.008820
v 0.711587 -0.638161 -0.008820
v 0.709430 -0.660058 -0.008820
v 0.711587 -0.681954 -0.008820
v 0.717973 -0.703009 -0.008820
v 0.728345 -0.722413 -0.008820
v 0.742303 -0.739421 -0.008820
v 0.759311 -0.753379 -0.008820
v 0.778715 -0.763750 -0.008820
v 0.799770 -0.770137 -0.008820
v 0.821666 -0.772294 -0.008820
v 0.843562 -0.770137 -0.008820
v 0.864617 -0.763750 -0.008820
v 0.884021 -0.753379 -0.008820
v 0.901029 -0.739421 -0.008820
v 0.914987 -0.722413 -0.008820
v 0.925359 -0.703009 -0.008820
v 0.931746 -0.681954 -0.008820
v 0.933902 -0.660058 -0.008820
v 0.931746 -0.638161 -0.008820
v 0.925359 -0.617107 -0.008820
v 0.914987 -0.597703 -0.008820
v 0.901029 -0.580695 -0.008820
v 0.884021 -0.566737 -0.008820
v 0.864617 -0.556365 -0.008820
v 0.843562 -0.549978 -0.008820
v 0.821666 -0.547821 -0.008820
vt 1.000000 1.000000
vt 0.968750 0.959747
vt 1.000000 0.959747
vt 0.968750 1.000000
vt 0.937500 0.959747
vt 0.937500 1.000000
vt 0.906250 0.959747
vt 0.906250 1.000000
vt 0.875000 0.959747
vt 0.875000 1.000000
vt 0.843750 0.959747
vt 0.843750 1.000000
vt 0.812500 0.959747
vt 0.812500 1.000000
vt 0.781250 0.959747
vt 0.781250 1.000000
vt 0.750000 0.959747
vt 0.750000 1.000000
vt 0.718750 0.959747
vt 0.718750 1.000000
vt 0.687500 0.959747
vt 0.687500 1.000000
vt 0.656250 0.959747
vt 0.656250 1.000000
vt 0.625000 0.959747
vt 0.625000 1.000000
vt 0.593750 0.959747
vt 0.593750 1.000000
vt 0.562500 0.959747
vt 0.562500 1.000000
vt 0.531250 0.959747
vt 0.531250 1.000000
vt 0.500000 0.959747
vt 0.500000 1.000000
vt 0.468750 0.959747
vt 0.468750 1.000000
vt 0.437500 0.959747
vt 0.437500 1.000000
vt 0.406250 0.959747
vt 0.406250 1.000000
vt 0.375000 0.959747
vt 0.375000 1.000000
vt 0.343750 0.959747
vt 0.343750 1.000000
vt 0.312500 0.959747
vt 0.312500 1.000000
vt 0.281250 0.959747
vt 0.281250 1.000000
vt 0.250000 0.959747
vt 0.250000 1.000000
vt 0.218750 0.959747
vt 0.218750 1.000000
vt 0.187500 0.959747
vt 0.187500 1.000000
vt 0.156250 0.959747
vt 0.156250 1.000000
vt 0.125000 0.959747
vt 0.125000 1.000000
vt 0.093750 0.959747
vt 0.093750 1.000000
vt 0.062500 0.959747
vt 0.158156 0.028269
vt 0.471731 0.158156
vt 0.341844 0.471731
vt 0.062500 1.000000
vt 0.031250 0.959747
vt 0.031250 1.000000
vt 0.000000 0.959747
vt 0.796822 0.014612
vt 0.514612 0.203178
vt 0.703178 0.485388
vt 0.031250 0.537850
vt 0.000000 0.500000
vt 0.031250 0.500000
vt 0.062500 0.537850
vt 0.062500 0.500000
vt 0.093750 0.537850
vt 0.093750 0.500000
vt 0.125000 0.537850
vt 0.125000 0.500000
vt 0.156250 0.537850
vt 0.156250 0.500000
vt 0.187500 0.537850
vt 0.187500 0.500000
vt 0.218750 0.537850
vt 0.218750 0.500000
vt 0.250000 0.537850
vt 0.250000 0.500000
vt 0.281250 0.537850
vt 0.281250 0.500000
vt 0.312500 0.537850
vt 0.312500 0.500000
vt 0.343750 0.537850
vt 0.343750 0.500000
vt 0.375000 0.537850
vt 0.375000 0.500000
vt 0.406250 0.537850
vt 0.406250 0.500000
vt 0.437500 0.537850
vt 0.437500 0.500000
vt 0.468750 0.537850
vt 0.468750 0.500000
vt 0.500000 0.537850
vt 0.500000 0.500000
vt 0.531250 0.537850
vt 0.531250 0.500000
vt 0.562500 0.537850
vt 0.562500 0.500000
vt 0.593750 0.537850
vt 0.593750 0.500000
vt 0.625000 0.537850
vt 0.625000 0.500000
vt 0.656250 0.537850
vt 0.656250 0.500000
vt 0.687500 0.537850
vt 0.687500 0.500000
vt 0.718750 0.537850
vt 0.718750 0.500000
vt 0.750000 0.537850
vt 0.750000 0.500000
vt 0.781250 0.500000
vt 0.812500 0.537850
vt 0.812500 0.500000
vt 0.843750 0.537850
vt 0.843750 0.500000
vt 0.875000 0.537850
vt 0.875000 0.500000
vt 0.906250 0.537850
vt 0.906250 0.500000
vt 0.937500 0.537850
vt 0.937500 0.500000
vt 0.968750 0.537850
vt 0.968750 0.500000
vt 1.000000 0.537850
vt 1.000000 0.500000
vt 0.000000 0.748799
vt 0.031250 0.748799
vt 0.062500 0.748799
vt 0.093750 0.748799
vt 0.125000 0.748799
vt 0.156250 0.748799
vt 0.187500 0.748799
vt 0.218750 0.748799
vt 0.250000 0.748799
vt 0.281250 0.748799
vt 0.312500 0.748799
vt 0.343750 0.748799
vt 0.375000 0.748799
vt 0.406250 0.748799
vt 0.437500 0.748799
vt 0.468750 0.748799
vt 0.500000 0.748799
vt 0.531250 0.748799
vt 0.562500 0.748799
vt 0.593750 0.748799
vt 0.625000 0.748799
vt 0.656250 0.748799
vt 0.687500 0.748799
vt 0.718750 0.748799
vt 0.750000 0.748799
vt 0.781250 0.748799
vt 0.812500 0.748799
vt 0.843750 0.748799
vt 0.875000 0.748799
vt 0.906250 0.748799
vt 0.937500 0.748799
vt 0.968750 0.748799
vt 1.000000 0.748799
vt 0.781250 0.537850
vt 0.000000 0.537850
vt 0.296822 0.485388
vt 0.250000 0.490000
vt 0.203178 0.485388
vt 0.158156 0.471731
vt 0.116663 0.449553
vt 0.080294 0.419706
vt 0.050447 0.383337
vt 0.028269 0.341844
vt 0.014612 0.296822
vt 0.010000 0.250000
vt 0.014612 0.203178
vt 0.028269 0.158156
vt 0.050447 0.116663
vt 0.080294 0.080294
vt 0.116663 0.050447
vt 0.203178 0.014612
vt 0.341844 0.028269
vt 0.250000 0.010000
vt 0.296822 0.014612
vt 0.383337 0.050447
vt 0.419706 0.080294
vt 0.449553 0.116663
vt 0.485388 0.203178
vt 0.471731 0.341844
vt 0.490000 0.250000
vt 0.485388 0.296822
vt 0.449553 0.383337
vt 0.419706 0.419706
vt 0.383337 0.449553
vt 0.000000 1.000000
vt 0.750000 0.490000
vt 0.796822 0.485388
vt 0.841844 0.471731
vt 0.883337 0.449553
vt 0.919706 0.419706
vt 0.949553 0.383337
vt 0.971731 0.341844
vt 0.985388 0.296822
vt 0.990000 0.250000
vt 0.985388 0.203178
vt 0.971731 0.158156
vt 0.949553 0.116663
vt 0.919706 0.080294
vt 0.883337 0.050447
vt 0.841844 0.028269
vt 0.750000 0.010000
vt 0.703178 0.014612
vt 0.658156 0.028269
vt 0.616663 0.050447
vt 0.580294 0.080294
vt 0.550447 0.116663
vt 0.528269 0.158156
vt 0.510000 0.250000
vt 0.514612 0.296822
vt 0.528269 0.341844
vt 0.550447 0.383337
vt 0.580294 0.419706
vt 0.616663 0.449553
vt 0.658156 0.471731
vn -0.0980 0.9952 -0.0000
vn -0.2903 0.9569 0.0000
vn -0.4714 0.8819 0.0000
vn -0.6344 0.7730 -0.0000
vn -0.7730 0.6344 -0.0000
vn -0.8819 0.4714 0.0000
vn -0.9569 0.2903 0.0000
vn -0.9952 0.0980 0.0000
vn -0.9952 -0.0980 0.0000
vn -0.9569 -0.2903 0.0000
vn -0.8819 -0.4714 0.0000
vn -0.7730 -0.6344 0.0000
vn -0.6344 -0.7730 0.0000
vn -0.4714 -0.8819 0.0000
vn -0.2903 -0.9569 0.0000
vn -0.0980 -0.9952 0.0000
vn 0.0980 -0.9952 0.0000
vn 0.2903 -0.9569 0.0000
vn 0.4714 -0.8819 0.0000
vn 0.6344 -0.7730 0.0000
vn 0.7730 -0.6344 0.0000
vn 0.8819 -0.4714 0.0000
vn 0.9569 -0.2903 0.0000
vn 0.9952 -0.0980 0.0000
vn 0.9952 0.0980 0.0000
vn 0.9569 0.2903 0.0000
vn 0.8819 0.4714 0.0000
vn 0.7730 0.6344 0.0000
vn 0.6344 0.7730 -0.0000
vn 0.4714 0.8819 0.0000
vn 0.0000 0.0000 -1.0000
vn 0.2903 0.9569 0.0000
vn 0.0980 0.9952 -0.0000
vn -0.0000 0.0000 1.0000
vn 0.0952 0.9668 0.2371
vn 0.2820 0.9297 0.2371
vn 0.4580 0.8568 0.2370
vn 0.6163 0.7510 0.2371
vn 0.7510 0.6163 0.2371
vn 0.8568 0.4580 0.2371
vn 0.9297 0.2820 0.2371
vn 0.9668 0.0952 0.2371
vn 0.9668 -0.0952 0.2371
vn 0.9297 -0.2820 0.2371
vn 0.8568 -0.4580 0.2371
vn 0.7510 -0.6163 0.2371
vn 0.6163 -0.7510 0.2371
vn 0.4580 -0.8568 0.2370
vn 0.2820 -0.9297 0.2371
vn 0.0952 -0.9668 0.2371
vn -0.0952 -0.9668 0.2371
vn -0.2820 -0.9297 0.2371
vn -0.4580 -0.8568 0.2371
vn -0.6163 -0.7510 0.2371
vn -0.7510 -0.6163 0.2370
vn -0.8568 -0.4580 0.2370
vn -0.9297 -0.2820 0.2371
vn -0.9668 -0.0952 0.2370
vn -0.9668 0.0952 0.2371
vn -0.9297 0.2820 0.2371
vn -0.8568 0.4580 0.2371
vn -0.7510 0.6163 0.2371
vn -0.6163 0.7510 0.2371
vn -0.4580 0.8568 0.2370
vn -0.2820 0.9297 0.2371
vn -0.0952 0.9668 0.2371
vn -0.0952 0.9668 -0.2371
vn -0.2820 0.9297 -0.2371
vn -0.4580 0.8568 -0.2371
vn -0.6163 0.7510 -0.2371
vn -0.7510 0.6163 -0.2371
vn -0.8568 0.4580 -0.2371
vn -0.9297 0.2820 -0.2371
vn -0.9668 0.0952 -0.2371
vn -0.9668 -0.0952 -0.2371
vn -0.9297 -0.2820 -0.2371
vn -0.8568 -0.4580 -0.2371
vn -0.7510 -0.6163 -0.2371
vn -0.6163 -0.7510 -0.2371
vn -0.4580 -0.8568 -0.2371
vn -0.2820 -0.9297 -0.2371
vn -0.0952 -0.9668 -0.2371
vn 0.0952 -0.9668 -0.2371
vn 0.2820 -0.9297 -0.2371
vn 0.4580 -0.8568 -0.2371
vn 0.6163 -0.7510 -0.2371
vn 0.7510 -0.6163 -0.2371
vn 0.8568 -0.4580 -0.2371
vn 0.9297 -0.2820 -0.2371
vn 0.9668 -0.0952 -0.2371
vn 0.9668 0.0952 -0.2371
vn 0.9297 0.2820 -0.2371
vn 0.8568 0.4580 -0.2371
vn 0.7510 0.6163 -0.2371
vn 0.6163 0.7510 -0.2371
vn 0.4580 0.8568 -0.2371
vn 0.2820 0.9297 -0.2371
vn 0.0952 0.9668 -0.2371
vn 0.4580 0.8568 0.2371
vn 0.4580 -0.8568 0.2371
vn -0.7510 -0.6163 0.2371
vn -0.8568 -0.4580 0.2371
vn -0.9668 -0.0952 0.2371
vn -0.4580 0.8568 0.2371
vn -0.4580 -0.8568 -0.2370
vn 0.4580 -0.8568 -0.2370
vn 0.8568 0.4580 -0.2370
vn 0.4580 0.8568 -0.2370
s off
f 30/45/20 126/46/20 125/47/20
f 32/48/21 127/49/21 126/46/21
f 34/50/22 128/51/22 127/49/22
f 36/52/23 129/53/23 128/51/23
f 38/54/24 130/55/24 129/53/24
f 40/56/25 131/57/25 130/55/25
f 42/58/26 132/59/26 131/57/26
f 44/60/27 133/61/27 132/59/27
f 46/62/28 134/63/28 133/61/28
f 48/64/29 135/65/29 134/63/29
f 50/66/30 136/67/30 135/65/30
f 52/68/31 137/69/31 136/67/31
f 54/70/32 138/71/32 137/69/32
f 56/72/33 139/73/33 138/71/33
f 58/74/34 140/75/34 139/73/34
f 60/76/35 141/77/35 140/75/35
f 62/78/36 142/79/36 141/77/36
f 64/80/37 143/81/37 142/79/37
f 66/82/38 144/83/38 143/81/38
f 68/84/39 145/85/39 144/83/39
f 70/86/40 146/87/40 145/85/40
f 72/88/41 147/89/41 146/87/41
f 74/90/42 148/91/42 147/89/42
f 76/92/43 149/93/43 148/91/43
f 78/94/44 150/95/44 149/93/44
f 80/96/45 151/97/45 150/95/45
f 82/98/46 152/99/46 151/97/46
f 84/100/47 153/101/47 152/99/47
f 86/102/48 154/103/48 153/101/48
f 88/104/49 155/105/49 154/103/49
f 66/106/50 50/107/50 34/108/50
f 90/109/51 156/110/51 155/105/51
f 92/111/52 125/112/52 156/110/52
f 59/113/53 75/114/53 91/115/53
f 124/116/52 29/117/52 91/118/52
f 123/119/51 91/118/51 89/120/51
f 122/121/49 89/120/49 87/122/49
f 121/123/48 87/122/48 85/124/48
f 120/125/47 85/124/47 83/126/47
f 119/127/46 83/126/46 81/128/46
f 118/129/45 81/128/45 79/130/45
f 117/131/44 79/130/44 77/132/44
f 116/133/43 77/132/43 75/134/43
f 115/135/42 75/134/42 73/136/42
f 114/137/41 73/136/41 71/138/41
f 113/139/40 71/138/40 69/140/40
f 112/141/39 69/140/39 67/142/39
f 111/143/38 67/142/38 65/144/38
f 110/145/37 65/144/37 63/146/37
f 109/147/36 63/146/36 61/148/36
f 108/149/35 61/148/35 59/150/35
f 107/151/34 59/150/34 57/152/34
f 106/153/33 57/152/33 55/154/33
f 105/155/32 55/154/32 53/156/32
f 104/157/31 53/156/31 51/158/31
f 103/159/30 51/158/30 49/160/30
f 102/161/29 49/160/29 47/162/29
f 101/163/28 47/162/28 45/164/28
f 43/165/27 101/163/27 45/164/27
f 99/166/26 43/165/26 41/167/26
f 98/168/25 41/167/25 39/169/25
f 97/170/24 39/169/24 37/171/24
f 96/172/23 37/171/23 35/173/23
f 95/174/22 35/173/22 33/175/22
f 94/176/21 33/175/21 31/177/21
f 93/178/20 31/177/20 29/179/20
f 156/110/54 188/180/54 187/181/54
f 155/105/55 187/181/55 186/182/55
f 154/103/56 186/182/56 185/183/56
f 153/101/57 185/183/57 184/184/57
f 152/99/58 184/184/58 183/185/58
f 151/97/59 183/185/59 182/186/59
f 150/95/60 182/186/60 181/187/60
f 149/93/61 181/187/61 180/188/61
f 148/91/62 180/188/62 179/189/62
f 147/89/63 179/189/63 178/190/63
f 146/87/64 178/190/64 177/191/64
f 145/85/65 177/191/65 176/192/65
f 144/83/66 176/192/66 175/193/66
f 143/81/67 175/193/67 174/194/67
f 142/79/68 174/194/68 173/195/68
f 141/77/69 173/195/69 172/196/69
f 140/75/70 172/196/70 171/197/70
f 139/73/71 171/197/71 170/198/71
f 138/71/72 170/198/72 169/199/72
f 137/69/73 169/199/73 168/200/73
f 136/67/74 168/200/74 167/201/74
f 135/65/75 167/201/75 166/202/75
f 134/63/76 166/202/76 165/203/76
f 133/61/77 165/203/77 164/204/77
f 132/59/78 164/204/78 163/205/78
f 131/57/79 163/205/79 162/206/79
f 130/55/80 162/206/80 161/207/80
f 129/53/81 161/207/81 160/208/81
f 128/51/82 160/208/82 159/209/82
f 127/49/83 159/209/83 158/210/83
f 126/46/84 158/210/84 157/211/84
f 125/47/85 157/211/85 188/212/85
f 188/212/86 94/176/86 93/178/86
f 157/211/87 95/174/87 94/176/87
f 158/210/88 96/172/88 95/174/88
f 159/209/89 97/170/89 96/172/89
f 160/208/90 98/168/90 97/170/90
f 161/207/91 99/166/91 98/168/91
f 162/206/92 100/213/92 99/166/92
f 163/205/93 101/163/93 100/213/93
f 164/204/94 102/161/94 101/163/94
f 165/203/95 103/159/95 102/161/95
f 166/202/96 104/157/96 103/159/96
f 167/201/97 105/155/97 104/157/97
f 168/200/98 106/153/98 105/155/98
f 169/199/99 107/151/99 106/153/99
f 170/198/100 108/149/100 107/151/100
f 171/197/101 109/147/101 108/149/101
f 172/196/102 110/145/102 109/147/102
f 173/195/103 111/143/103 110/145/103
f 174/194/104 112/141/104 111/143/104
f 175/193/105 113/139/105 112/141/105
f 176/192/106 114/137/106 113/139/106
f 177/191/107 115/135/107 114/137/107
f 178/190/108 116/133/108 115/135/108
f 179/189/109 117/131/109 116/133/109
f 117/131/110 181/187/110 118/129/110
f 181/187/111 119/127/111 118/129/111
f 182/186/112 120/125/112 119/127/112
f 183/185/113 121/123/113 120/125/113
f 184/184/114 122/121/114 121/123/114
f 185/183/115 123/119/115 122/121/115
f 186/182/116 124/116/116 123/119/116
f 187/181/117 93/214/117 124/116/117
f 30/45/20 32/48/20 126/46/20
f 32/48/21 34/50/21 127/49/21
f 34/50/22 36/52/22 128/51/22
f 36/52/23 38/54/23 129/53/23
f 38/54/24 40/56/24 130/55/24
f 40/56/25 42/58/25 131/57/25
f 42/58/26 44/60/26 132/59/26
f 44/60/27 46/62/27 133/61/27
f 46/62/28 48/64/28 134/63/28
f 48/64/29 50/66/29 135/65/29
f 50/66/30 52/68/30 136/67/30
f 52/68/31 54/70/31 137/69/31
f 54/70/32 56/72/32 138/71/32
f 56/72/33 58/74/33 139/73/33
f 58/74/34 60/76/34 140/75/34
f 60/76/35 62/78/35 141/77/35
f 62/78/36 64/80/36 142/79/36
f 64/80/37 66/82/37 143/81/37
f 66/82/38 68/84/38 144/83/38
f 68/84/39 70/86/39 145/85/39
f 70/86/40 72/88/40 146/87/40
f 72/88/41 74/90/41 147/89/41
f 74/90/42 76/92/42 148/91/42
f 76/92/43 78/94/43 149/93/43
f 78/94/44 80/96/44 150/95/44
f 80/96/45 82/98/45 151/97/45
f 82/98/46 84/100/46 152/99/46
f 84/100/47 86/102/47 153/101/47
f 86/102/48 88/104/48 154/103/48
f 88/104/49 90/109/49 155/105/49
f 34/108/50 32/215/50 30/216/50
f 30/216/50 92/217/50 34/108/50
f 92/217/50 90/218/50 34/108/50
f 90/218/50 88/219/50 86/220/50
f 86/220/50 84/221/50 82/222/50
f 82/222/50 80/223/50 78/224/50
f 78/224/50 76/225/50 82/222/50
f 76/225/50 74/226/50 82/222/50
f 74/226/50 72/227/50 70/228/50
f 70/228/50 68/229/50 66/106/50
f 66/106/50 64/230/50 58/231/50
f 64/230/50 62/232/50 58/231/50
f 62/232/50 60/233/50 58/231/50
f 58/231/50 56/234/50 54/235/50
f 54/235/50 52/236/50 50/107/50
f 50/107/50 48/237/50 42/238/50
f 48/237/50 46/239/50 42/238/50
f 46/239/50 44/240/50 42/238/50
f 42/238/50 40/241/50 38/242/50
f 38/242/50 36/243/50 34/108/50
f 90/218/50 86/220/50 34/108/50
f 86/220/50 82/222/50 34/108/50
f 74/226/50 70/228/50 82/222/50
f 70/228/50 66/106/50 82/222/50
f 58/231/50 54/235/50 66/106/50
f 54/235/50 50/107/50 66/106/50
f 42/238/50 38/242/50 50/107/50
f 38/242/50 34/108/50 50/107/50
f 34/108/50 82/222/50 66/106/50
f 90/109/51 92/111/51 156/110/51
f 92/111/52 30/244/52 125/112/52
f 91/115/53 29/245/53 31/246/53
f 31/246/53 33/247/53 91/115/53
f 33/247/53 35/248/53 91/115/53
f 35/248/53 37/249/53 39/250/53
f 39/250/53 41/251/53 43/252/53
f 43/252/53 45/253/53 47/254/53
f 47/254/53 49/255/53 51/256/53
f 51/256/53 53/257/53 55/258/53
f 55/258/53 57/259/53 59/113/53
f 59/113/53 61/260/53 63/261/53
f 63/261/53 65/262/53 59/113/53
f 65/262/53 67/263/53 59/113/53
f 67/263/53 69/264/53 71/265/53
f 71/265/53 73/266/53 67/263/53
f 73/266/53 75/114/53 67/263/53
f 75/114/53 77/267/53 79/268/53
f 79/268/53 81/269/53 83/270/53
f 83/270/53 85/271/53 87/272/53
f 87/272/53 89/273/53 91/115/53
f 35/248/53 39/250/53 43/252/53
f 43/252/53 47/254/53 59/113/53
f 47/254/53 51/256/53 59/113/53
f 51/256/53 55/258/53 59/113/53
f 75/114/53 79/268/53 91/115/53
f 79/268/53 83/270/53 91/115/53
f 83/270/53 87/272/53 91/115/53
f 91/115/53 35/248/53 43/252/53
f 59/113/53 67/263/53 75/114/53
f 91/115/53 43/252/53 59/113/53
f 124/116/52 93/214/52 29/117/52
f 123/119/51 124/116/51 91/118/51
f 122/121/49 123/119/49 89/120/49
f 121/123/48 122/121/48 87/122/48
f 120/125/47 121/123/47 85/124/47
f 119/127/46 120/125/46 83/126/46
f 118/129/45 119/127/45 81/128/45
f 117/131/44 118/129/44 79/130/44
f 116/133/43 117/131/43 77/132/43
f 115/135/42 116/133/42 75/134/42
f 114/137/41 115/135/41 73/136/41
f 113/139/40 114/137/40 71/138/40
f 112/141/39 113/139/39 69/140/39
f 111/143/38 112/141/38 67/142/38
f 110/145/37 111/143/37 65/144/37
f 109/147/36 110/145/36 63/146/36
f 108/149/35 109/147/35 61/148/35
f 107/151/34 108/149/34 59/150/34
f 106/153/33 107/151/33 57/152/33
f 105/155/32 106/153/32 55/154/32
f 104/157/31 105/155/31 53/156/31
f 103/159/30 104/157/30 51/158/30
f 102/161/29 103/159/29 49/160/29
f 101/163/28 102/161/28 47/162/28
f 43/165/27 100/213/27 101/163/27
f 99/166/26 100/213/26 43/165/26
f 98/168/25 99/166/25 41/167/25
f 97/170/24 98/168/24 39/169/24
f 96/172/23 97/170/23 37/171/23
f 95/174/22 96/172/22 35/173/22
f 94/176/21 95/174/21 33/175/21
f 93/178/20 94/176/20 31/177/20
f 156/110/54 125/112/54 188/180/54
f 155/105/55 156/110/55 187/181/55
f 154/103/118 155/105/118 186/182/118
f 153/101/57 154/103/57 185/183/57
f 152/99/58 153/101/58 184/184/58
f 151/97/59 152/99/59 183/185/59
f 150/95/60 151/97/60 182/186/60
f 149/93/61 150/95/61 181/187/61
f 148/91/62 149/93/62 180/188/62
f 147/89/63 148/91/63 179/189/63
f 146/87/64 147/89/64 178/190/64
f 145/85/65 146/87/65 177/191/65
f 144/83/66 145/85/66 176/192/66
f 143/81/119 144/83/119 175/193/119
f 142/79/68 143/81/68 174/194/68
f 141/77/69 142/79/69 173/195/69
f 140/75/70 141/77/70 172/196/70
f 139/73/71 140/75/71 171/197/71
f 138/71/72 139/73/72 170/198/72
f 137/69/73 138/71/73 169/199/73
f 136/67/120 137/69/120 168/200/120
f 135/65/121 136/67/121 167/201/121
f 134/63/76 135/65/76 166/202/76
f 133/61/122 134/63/122 165/203/122
f 132/59/78 133/61/78 164/204/78
f 131/57/79 132/59/79 163/205/79
f 130/55/80 131/57/80 162/206/80
f 129/53/81 130/55/81 161/207/81
f 128/51/82 129/53/82 160/208/82
f 127/49/123 128/51/123 159/209/123
f 126/46/84 127/49/84 158/210/84
f 125/47/85 126/46/85 157/211/85
f 188/212/86 157/211/86 94/176/86
f 157/211/87 158/210/87 95/174/87
f 158/210/88 159/209/88 96/172/88
f 159/209/89 160/208/89 97/170/89
f 160/208/90 161/207/90 98/168/90
f 161/207/91 162/206/91 99/166/91
f 162/206/92 163/205/92 100/213/92
f 163/205/93 164/204/93 101/163/93
f 164/204/94 165/203/94 102/161/94
f 165/203/95 166/202/95 103/159/95
f 166/202/96 167/201/96 104/157/96
f 167/201/97 168/200/97 105/155/97
f 168/200/98 169/199/98 106/153/98
f 169/199/124 170/198/124 107/151/124
f 170/198/100 171/197/100 108/149/100
f 171/197/101 172/196/101 109/147/101
f 172/196/102 173/195/102 110/145/102
f 173/195/103 174/194/103 111/143/103
f 174/194/125 175/193/125 112/141/125
f 175/193/105 176/192/105 113/139/105
f 176/192/106 177/191/106 114/137/106
f 177/191/107 178/190/107 115/135/107
f 178/190/108 179/189/108 116/133/108
f 179/189/109 180/188/109 117/131/109
f 117/131/110 180/188/110 181/187/110
f 181/187/111 182/186/111 119/127/111
f 182/186/126 183/185/126 120/125/126
f 183/185/113 184/184/113 121/123/113
f 184/184/114 185/183/114 122/121/114
f 185/183/127 186/182/127 123/119/127
f 186/182/116 187/181/116 124/116/116
f 187/181/117 188/180/117 93/214/117
o Cylinder.001
v -2.100298 -0.266072 1.346489
v -2.100298 -0.266072 -1.377216
v -2.177161 -0.273642 1.346489
v -2.177161 -0.273643 -1.377216
v -2.251070 -0.296063 1.346489
v -2.251070 -0.296063 -1.377216
v -2.319185 -0.332471 1.346489
v -2.319185 -0.332471 -1.377216
v -2.378888 -0.381468 1.346489
v -2.378888 -0.381468 -1.377216
v -2.427885 -0.441171 1.346489
v -2.427885 -0.441171 -1.377216
v -2.464293 -0.509286 1.346489
v -2.464293 -0.509286 -1.377216
v -2.486713 -0.583195 1.346489
v -2.486713 -0.583195 -1.377216
v -2.494283 -0.660058 1.346489
v -2.494283 -0.660058 -1.377216
v -2.486713 -0.736920 1.346489
v -2.486713 -0.736920 -1.377216
v -2.464293 -0.810829 1.346489
v -2.464293 -0.810829 -1.377216
v -2.427885 -0.878944 1.346489
v -2.427885 -0.878944 -1.377216
v -2.378888 -0.938648 1.346489
v -2.378888 -0.938648 -1.377216
v -2.319185 -0.987645 1.346489
v -2.319185 -0.987645 -1.377216
v -2.251070 -1.024053 1.346489
v -2.251070 -1.024053 -1.377216
v -2.177161 -1.046473 1.346489
v -2.177161 -1.046473 -1.377216
v -2.100298 -1.054043 1.346489
v -2.100298 -1.054043 -1.377216
v -2.023435 -1.046473 1.346489
v -2.023435 -1.046473 -1.377216
v -1.949526 -1.024053 1.346489
v -1.949526 -1.024053 -1.377216
v -1.881411 -0.987645 1.346489
v -1.881411 -0.987645 -1.377216
v -1.821708 -0.938648 1.346489
v -1.821708 -0.938648 -1.377216
v -1.772711 -0.878944 1.346489
v -1.772711 -0.878944 -1.377216
v -1.736303 -0.810829 1.346489
v -1.736303 -0.810829 -1.377216
v -1.713883 -0.736920 1.346489
v -1.713883 -0.736920 -1.377216
v -1.706312 -0.660058 1.346489
v -1.706312 -0.660058 -1.377216
v -1.713883 -0.583195 1.346489
v -1.713883 -0.583195 -1.377216
v -1.736303 -0.509286 1.346489
v -1.736303 -0.509286 -1.377216
v -1.772711 -0.441171 1.346489
v -1.772711 -0.441171 -1.377216
v -1.821708 -0.381468 1.346489
v -1.821708 -0.381468 -1.377216
v -1.881411 -0.332471 1.346489
v -1.881411 -0.332471 -1.377216
v -1.949526 -0.296063 1.346489
v -1.949526 -0.296063 -1.377216
v -2.023435 -0.273642 1.346489
v -2.023435 -0.273643 -1.377216
v -2.100298 -0.266072 1.140302
v -2.177161 -0.273642 1.140302
v -2.251070 -0.296063 1.140302
v -2.319185 -0.332471 1.140302
v -2.378888 -0.381468 1.140302
v -2.427885 -0.441171 1.140302
v -2.464293 -0.509286 1.140302
v -2.486713 -0.583195 1.140302
v -2.494283 -0.660058 1.140302
v -2.486713 -0.736920 1.140302
v -2.464293 -0.810829 1.140302
v -2.427885 -0.878944 1.140302
v -2.378888 -0.938648 1.140302
v -2.319185 -0.987645 1.140302
v -2.251070 -1.024053 1.140302
v -2.177161 -1.046473 1.140302
v -2.100298 -1.054043 1.140302
v -2.023435 -1.046473 1.140302
v -1.949526 -1.024053 1.140302
v -1.881411 -0.987645 1.140302
v -1.821708 -0.938648 1.140302
v -1.772711 -0.878944 1.140302
v -1.736303 -0.810829 1.140302
v -1.713883 -0.736920 1.140302
v -1.706312 -0.660058 1.140302
v -1.713883 -0.583195 1.140302
v -1.736303 -0.509286 1.140302
v -1.772711 -0.441171 1.140302
v -1.821708 -0.381468 1.140302
v -1.881411 -0.332471 1.140302
v -1.949526 -0.296063 1.140302
v -2.023435 -0.273642 1.140302
v -2.100298 -0.266072 -1.157942
v -2.177161 -0.273642 -1.157942
v -2.251070 -0.296063 -1.157942
v -2.319185 -0.332471 -1.157942
v -2.378888 -0.381468 -1.157942
v -2.427885 -0.441171 -1.157942
v -2.464293 -0.509286 -1.157942
v -2.486713 -0.583195 -1.157942
v -2.494283 -0.660058 -1.157942
v -2.486713 -0.736920 -1.157942
v -2.464293 -0.810829 -1.157942
v -2.427885 -0.878944 -1.157942
v -2.378888 -0.938648 -1.157942
v -2.319185 -0.987645 -1.157942
v -2.251070 -1.024053 -1.157942
v -2.177161 -1.046473 -1.157942
v -2.100298 -1.054043 -1.157942
v -2.023435 -1.046473 -1.157942
v -1.949526 -1.024053 -1.157942
v -1.881411 -0.987645 -1.157942
v -1.821708 -0.938648 -1.157942
v -1.772711 -0.878944 -1.157942
v -1.736303 -0.810829 -1.157942
v -1.713883 -0.736920 -1.157942
v -1.706312 -0.660058 -1.157942
v -1.713883 -0.583195 -1.157942
v -1.736303 -0.509286 -1.157942
v -1.772711 -0.441171 -1.157942
v -1.821708 -0.381468 -1.157942
v -1.881411 -0.332471 -1.157942
v -1.949526 -0.296063 -1.157942
v -2.023435 -0.273642 -1.157942
v -2.122194 -0.549978 -0.008820
v -2.143249 -0.556365 -0.008820
v -2.162653 -0.566737 -0.008820
v -2.179661 -0.580695 -0.008820
v -2.193619 -0.597703 -0.008820
v -2.203991 -0.617107 -0.008820
v -2.210377 -0.638161 -0.008820
v -2.212534 -0.660058 -0.008820
v -2.210377 -0.681954 -0.008820
v -2.203991 -0.703009 -0.008820
v -2.193619 -0.722413 -0.008820
v -2.179661 -0.739421 -0.008820
v -2.162653 -0.753379 -0.008820
v -2.143249 -0.763750 -0.008820
v -2.122194 -0.770137 -0.008820
v -2.100298 -0.772294 -0.008820
v -2.078402 -0.770137 -0.008820
v -2.057347 -0.763750 -0.008820
v -2.037943 -0.753379 -0.008820
v -2.020935 -0.739421 -0.008820
v -2.006977 -0.722413 -0.008820
v -1.996605 -0.703009 -0.008820
v -1.990218 -0.681954 -0.008820
v -1.988062 -0.660058 -0.008820
v -1.990218 -0.638161 -0.008820
v -1.996605 -0.617107 -0.008820
v -2.006977 -0.597703 -0.008820
v -2.020935 -0.580695 -0.008820
v -2.037943 -0.566737 -0.008820
v -2.057347 -0.556365 -0.008820
v -2.078402 -0.549978 -0.008820
v -2.100298 -0.547821 -0.008820
vt 1.000000 1.000000
vt 0.968750 0.959747
vt 1.000000 0.959747
vt 0.968750 1.000000
vt 0.937500 0.959747
vt 0.937500 1.000000
vt 0.906250 0.959747
vt 0.906250 1.000000
vt 0.875000 0.959747
vt 0.875000 1.000000
vt 0.843750 0.959747
vt 0.843750 1.000000
vt 0.812500 0.959747
vt 0.812500 1.000000
vt 0.781250 0.959747
vt 0.781250 1.000000
vt 0.750000 0.959747
vt 0.750000 1.000000
vt 0.718750 0.959747
vt 0.718750 1.000000
vt 0.687500 0.959747
vt 0.687500 1.000000
vt 0.656250 0.959747
vt 0.656250 1.000000
vt 0.625000 0.959747
vt 0.625000 1.000000
vt 0.593750 0.959747
vt 0.593750 1.000000
vt 0.562500 0.959747
vt 0.562500 1.000000
vt 0.531250 0.959747
vt 0.531250 1.000000
vt 0.500000 0.959747
vt 0.500000 1.000000
vt 0.468750 0.959747
vt 0.468750 1.000000
vt 0.437500 0.959747
vt 0.437500 1.000000
vt 0.406250 0.959747
vt 0.406250 1.000000
vt 0.375000 0.959747
vt 0.375000 1.000000
vt 0.343750 0.959747
vt 0.343750 1.000000
vt 0.312500 0.959747
vt 0.312500 1.000000
vt 0.281250 0.959747
vt 0.281250 1.000000
vt 0.250000 0.959747
vt 0.250000 1.000000
vt 0.218750 0.959747
vt 0.218750 1.000000
vt 0.187500 0.959747
vt 0.187500 1.000000
vt 0.156250 0.959747
vt 0.156250 1.000000
vt 0.125000 0.959747
vt 0.125000 1.000000
vt 0.093750 0.959747
vt 0.093750 1.000000
vt 0.062500 0.959747
vt 0.158156 0.028269
vt 0.471731 0.158156
vt 0.341844 0.471731
vt 0.062500 1.000000
vt 0.031250 0.959747
vt 0.031250 1.000000
vt 0.000000 0.959747
vt 0.796822 0.014612
vt 0.514612 0.203178
vt 0.703178 0.485388
vt 0.031250 0.537850
vt 0.000000 0.500000
vt 0.031250 0.500000
vt 0.062500 0.537850
vt 0.062500 0.500000
vt 0.093750 0.537850
vt 0.093750 0.500000
vt 0.125000 0.537850
vt 0.125000 0.500000
vt 0.156250 0.537850
vt 0.156250 0.500000
vt 0.187500 0.537850
vt 0.187500 0.500000
vt 0.218750 0.537850
vt 0.218750 0.500000
vt 0.250000 0.537850
vt 0.250000 0.500000
vt 0.281250 0.537850
vt 0.281250 0.500000
vt 0.312500 0.537850
vt 0.312500 0.500000
vt 0.343750 0.537850
vt 0.343750 0.500000
vt 0.375000 0.537850
vt 0.375000 0.500000
vt 0.406250 0.537850
vt 0.406250 0.500000
vt 0.437500 0.537850
vt 0.437500 0.500000
vt 0.468750 0.537850
vt 0.468750 0.500000
vt 0.500000 0.537850
vt 0.500000 0.500000
vt 0.531250 0.537850
vt 0.531250 0.500000
vt 0.562500 0.537850
vt 0.562500 0.500000
vt 0.593750 0.537850
vt 0.593750 0.500000
vt 0.625000 0.537850
vt 0.625000 0.500000
vt 0.656250 0.537850
vt 0.656250 0.500000
vt 0.687500 0.537850
vt 0.687500 0.500000
vt 0.718750 0.537850
vt 0.718750 0.500000
vt 0.750000 0.537850
vt 0.750000 0.500000
vt 0.781250 0.500000
vt 0.812500 0.537850
vt 0.812500 0.500000
vt 0.843750 0.537850
vt 0.843750 0.500000
vt 0.875000 0.537850
vt 0.875000 0.500000
vt 0.906250 0.537850
vt 0.906250 0.500000
vt 0.937500 0.537850
vt 0.937500 0.500000
vt 0.968750 0.537850
vt 0.968750 0.500000
vt 1.000000 0.537850
vt 1.000000 0.500000
vt 0.000000 0.748799
vt 0.031250 0.748799
vt 0.062500 0.748799
vt 0.093750 0.748799
vt 0.125000 0.748799
vt 0.156250 0.748799
vt 0.187500 0.748799
vt 0.218750 0.748799
vt 0.250000 0.748799
vt 0.281250 0.748799
vt 0.312500 0.748799
vt 0.343750 0.748799
vt 0.375000 0.748799
vt 0.406250 0.748799
vt 0.437500 0.748799
vt 0.468750 0.748799
vt 0.500000 0.748799
vt 0.531250 0.748799
vt 0.562500 0.748799
vt 0.593750 0.748799
vt 0.625000 0.748799
vt 0.656250 0.748799
vt 0.687500 0.748799
vt 0.718750 0.748799
vt 0.750000 0.748799
vt 0.781250 0.748799
vt 0.812500 0.748799
vt 0.843750 0.748799
vt 0.875000 0.748799
vt 0.906250 0.748799
vt 0.937500 0.748799
vt 0.968750 0.748799
vt 1.000000 0.748799
vt 0.781250 0.537850
vt 0.000000 0.537850
vt 0.296822 0.485388
vt 0.250000 0.490000
vt 0.203178 0.485388
vt 0.158156 0.471731
vt 0.116663 0.449553
vt 0.080294 0.419706
vt 0.050447 0.383337
vt 0.028269 0.341844
vt 0.014612 0.296822
vt 0.010000 0.250000
vt 0.014612 0.203178
vt 0.028269 0.158156
vt 0.050447 0.116663
vt 0.080294 0.080294
vt 0.116663 0.050447
vt 0.203178 0.014612
vt 0.341844 0.028269
vt 0.250000 0.010000
vt 0.296822 0.014612
vt 0.383337 0.050447
vt 0.419706 0.080294
vt 0.449553 0.116663
vt 0.485388 0.203178
vt 0.471731 0.341844
vt 0.490000 0.250000
vt 0.485388 0.296822
vt 0.449553 0.383337
vt 0.419706 0.419706
vt 0.383337 0.449553
vt 0.000000 1.000000
vt 0.750000 0.490000
vt 0.796822 0.485388
vt 0.841844 0.471731
vt 0.883337 0.449553
vt 0.919706 0.419706
vt 0.949553 0.383337
vt 0.971731 0.341844
vt 0.985388 0.296822
vt 0.990000 0.250000
vt 0.985388 0.203178
vt 0.971731 0.158156
vt 0.949553 0.116663
vt 0.919706 0.080294
vt 0.883337 0.050447
vt 0.841844 0.028269
vt 0.750000 0.010000
vt 0.703178 0.014612
vt 0.658156 0.028269
vt 0.616663 0.050447
vt 0.580294 0.080294
vt 0.550447 0.116663
vt 0.528269 0.158156
vt 0.510000 0.250000
vt 0.514612 0.296822
vt 0.528269 0.341844
vt 0.550447 0.383337
vt 0.580294 0.419706
vt 0.616663 0.449553
vt 0.658156 0.471731
vn -0.0980 0.9952 -0.0000
vn -0.2903 0.9569 0.0000
vn -0.4714 0.8819 0.0000
vn -0.6344 0.7730 -0.0000
vn -0.7730 0.6344 -0.0000
vn -0.8819 0.4714 0.0000
vn -0.9569 0.2903 0.0000
vn -0.9952 0.0980 0.0000
vn -0.9952 -0.0980 0.0000
vn -0.9569 -0.2903 0.0000
vn -0.8819 -0.4714 0.0000
vn -0.7730 -0.6344 0.0000
vn -0.6344 -0.7730 0.0000
vn -0.4714 -0.8819 0.0000
vn -0.2903 -0.9569 0.0000
vn -0.0980 -0.9952 0.0000
vn 0.0980 -0.9952 0.0000
vn 0.2903 -0.9569 0.0000
vn 0.4714 -0.8819 0.0000
vn 0.6344 -0.7730 0.0000
vn 0.7730 -0.6344 0.0000
vn 0.8819 -0.4714 0.0000
vn 0.9569 -0.2903 0.0000
vn 0.9952 -0.0980 0.0000
vn 0.9952 0.0980 0.0000
vn 0.9569 0.2903 0.0000
vn 0.8819 0.4714 0.0000
vn 0.7730 0.6344 0.0000
vn 0.6344 0.7730 -0.0000
vn 0.4714 0.8819 0.0000
vn 0.0000 0.0000 -1.0000
vn 0.2903 0.9569 0.0000
vn 0.0980 0.9952 -0.0000
vn -0.0000 0.0000 1.0000
vn 0.0952 0.9668 0.2371
vn 0.2820 0.9297 0.2370
vn 0.4580 0.8568 0.2370
vn 0.6163 0.7510 0.2371
vn 0.7510 0.6163 0.2370
vn 0.8568 0.4580 0.2371
vn 0.9297 0.2820 0.2371
vn 0.9668 0.0952 0.2371
vn 0.9668 -0.0952 0.2371
vn 0.9297 -0.2820 0.2371
vn 0.8568 -0.4580 0.2371
vn 0.7510 -0.6163 0.2370
vn 0.6163 -0.7510 0.2371
vn 0.4580 -0.8568 0.2371
vn 0.2820 -0.9297 0.2370
vn 0.0952 -0.9668 0.2370
vn -0.0952 -0.9668 0.2371
vn -0.2820 -0.9297 0.2370
vn -0.4580 -0.8568 0.2371
vn -0.6163 -0.7510 0.2371
vn -0.7510 -0.6163 0.2371
vn -0.8568 -0.4580 0.2371
vn -0.9297 -0.2820 0.2371
vn -0.9668 -0.0952 0.2370
vn -0.9668 0.0952 0.2371
vn -0.9297 0.2820 0.2371
vn -0.8568 0.4580 0.2371
vn -0.7510 0.6163 0.2371
vn -0.6163 0.7510 0.2371
vn -0.4580 0.8568 0.2371
vn -0.2820 0.9297 0.2370
vn -0.0952 0.9668 0.2371
vn -0.0952 0.9668 -0.2371
vn -0.2820 0.9297 -0.2371
vn -0.4580 0.8568 -0.2371
vn -0.6163 0.7510 -0.2371
vn -0.7510 0.6163 -0.2371
vn -0.8568 0.4580 -0.2371
vn -0.9297 0.2820 -0.2371
vn -0.9668 0.0952 -0.2371
vn -0.9668 -0.0952 -0.2371
vn -0.9297 -0.2820 -0.2371
vn -0.8568 -0.4580 -0.2371
vn -0.7510 -0.6163 -0.2371
vn -0.6163 -0.7510 -0.2371
vn -0.4580 -0.8568 -0.2371
vn -0.2820 -0.9297 -0.2371
vn -0.0952 -0.9668 -0.2371
vn 0.0952 -0.9668 -0.2371
vn 0.2820 -0.9297 -0.2370
vn 0.4580 -0.8568 -0.2371
vn 0.6163 -0.7510 -0.2371
vn 0.7510 -0.6163 -0.2371
vn 0.8568 -0.4580 -0.2371
vn 0.9297 -0.2820 -0.2371
vn 0.9668 -0.0952 -0.2371
vn 0.9668 0.0952 -0.2371
vn 0.9297 0.2820 -0.2371
vn 0.8568 0.4580 -0.2371
vn 0.7510 0.6163 -0.2371
vn 0.6163 0.7510 -0.2371
vn 0.4580 0.8568 -0.2371
vn 0.2820 0.9297 -0.2371
vn 0.0952 0.9668 -0.2371
vn 0.4580 0.8568 0.2371
vn 0.7510 0.6163 0.2371
vn 0.7510 -0.6163 0.2371
vn 0.2820 -0.9297 0.2371
vn 0.0952 -0.9668 0.2371
vn -0.2820 -0.9297 0.2371
vn -0.9668 -0.0952 0.2371
vn -0.2820 0.9297 0.2371
vn -0.2820 0.9297 -0.2370
vn -0.4580 0.8568 -0.2370
vn -0.9297 -0.2820 -0.2370
vn -0.6163 -0.7510 -0.2370
vn -0.2820 -0.9297 -0.2370
vn 0.4580 -0.8568 -0.2370
vn 0.7510 -0.6163 -0.2370
vn 0.9668 -0.0952 -0.2370
vn 0.7510 0.6163 -0.2370
vn 0.2820 0.9297 -0.2370
vn 0.0952 0.9668 -0.2370
s off
f 190/274/128 286/275/128 285/276/128
f 192/277/129 287/278/129 286/275/129
f 194/279/130 288/280/130 287/278/130
f 196/281/131 289/282/131 288/280/131
f 198/283/132 290/284/132 289/282/132
f 200/285/133 291/286/133 290/284/133
f 202/287/134 292/288/134 291/286/134
f 204/289/135 293/290/135 292/288/135
f 206/291/136 294/292/136 293/290/136
f 208/293/137 295/294/137 294/292/137
f 210/295/138 296/296/138 295/294/138
f 212/297/139 297/298/139 296/296/139
f 214/299/140 298/300/140 297/298/140
f 216/301/141 299/302/141 298/300/141
f 218/303/142 300/304/142 299/302/142
f 220/305/143 301/306/143 300/304/143
f 222/307/144 302/308/144 301/306/144
f 224/309/145 303/310/145 302/308/145
f 226/311/146 304/312/146 303/310/146
f 228/313/147 305/314/147 304/312/147
f 230/315/148 306/316/148 305/314/148
f 232/317/149 307/318/149 306/316/149
f 234/319/150 308/320/150 307/318/150
f 236/321/151 309/322/151 308/320/151
f 238/323/152 310/324/152 309/322/152
f 240/325/153 311/326/153 310/324/153
f 242/327/154 312/328/154 311/326/154
f 244/329/155 313/330/155 312/328/155
f 246/331/156 314/332/156 313/330/156
f 248/333/157 315/334/157 314/332/157
f 226/335/158 210/336/158 194/337/158
f 250/338/159 316/339/159 315/334/159
f 252/340/160 285/341/160 316/339/160
f 219/342/161 235/343/161 251/344/161
f 284/345/160 189/346/160 251/347/160
f 283/348/159 251/347/159 249/349/159
f 282/350/157 249/349/157 247/351/157
f 281/352/156 247/351/156 245/353/156
f 280/354/155 245/353/155 243/355/155
f 279/356/154 243/355/154 241/357/154
f 278/358/153 241/357/153 239/359/153
f 277/360/152 239/359/152 237/361/152
f 276/362/151 237/361/151 235/363/151
f 275/364/150 235/363/150 233/365/150
f 274/366/149 233/365/149 231/367/149
f 273/368/148 231/367/148 229/369/148
f 272/370/147 229/369/147 227/371/147
f 271/372/146 227/371/146 225/373/146
f 270/374/145 225/373/145 223/375/145
f 269/376/144 223/375/144 221/377/144
f 268/378/143 221/377/143 219/379/143
f 267/380/142 219/379/142 217/381/142
f 266/382/141 217/381/141 215/383/141
f 265/384/140 215/383/140 213/385/140
f 264/386/139 213/385/139 211/387/139
f 263/388/138 211/387/138 209/389/138
f 262/390/137 209/389/137 207/391/137
f 261/392/136 207/391/136 205/393/136
f 203/394/135 261/392/135 205/393/135
f 259/395/134 203/394/134 201/396/134
f 258/397/133 201/396/133 199/398/133
f 257/399/132 199/398/132 197/400/132
f 256/401/131 197/400/131 195/402/131
f 255/403/130 195/402/130 193/404/130
f 254/405/129 193/404/129 191/406/129
f 253/407/128 191/406/128 189/408/128
f 316/339/162 348/409/162 347/410/162
f 315/334/163 347/410/163 346/411/163
f 314/332/164 346/411/164 345/412/164
f 313/330/165 345/412/165 344/413/165
f 312/328/166 344/413/166 343/414/166
f 311/326/167 343/414/167 342/415/167
f 310/324/168 342/415/168 341/416/168
f 309/322/169 341/416/169 340/417/169
f 308/320/170 340/417/170 339/418/170
f 307/318/171 339/418/171 338/419/171
f 306/316/172 338/419/172 337/420/172
f 305/314/173 337/420/173 336/421/173
f 304/312/174 336/421/174 335/422/174
f 303/310/175 335/422/175 334/423/175
f 302/308/176 334/423/176 333/424/176
f 301/306/177 333/424/177 332/425/177
f 300/304/178 332/425/178 331/426/178
f 299/302/179 331/426/179 330/427/179
f 298/300/180 330/427/180 329/428/180
f 297/298/181 329/428/181 328/429/181
f 296/296/182 328/429/182 327/430/182
f 295/294/183 327/430/183 326/431/183
f 294/292/184 326/431/184 325/432/184
f 293/290/185 325/432/185 324/433/185
f 292/288/186 324/433/186 323/434/186
f 291/286/187 323/434/187 322/435/187
f 290/284/188 322/435/188 321/436/188
f 289/282/189 321/436/189 320/437/189
f 288/280/190 320/437/190 319/438/190
f 287/278/191 319/438/191 318/439/191
f 286/275/192 318/439/192 317/440/192
f 285/276/193 317/440/193 348/441/193
f 348/441/194 254/405/194 253/407/194
f 317/440/195 255/403/195 254/405/195
f 318/439/196 256/401/196 255/403/196
f 319/438/197 257/399/197 256/401/197
f 320/437/198 258/397/198 257/399/198
f 321/436/199 259/395/199 258/397/199
f 322/435/200 260/442/200 259/395/200
f 323/434/201 261/392/201 260/442/201
f 324/433/202 262/390/202 261/392/202
f 325/432/203 263/388/203 262/390/203
f 326/431/204 264/386/204 263/388/204
f 327/430/205 265/384/205 264/386/205
f 328/429/206 266/382/206 265/384/206
f 329/428/207 267/380/207 266/382/207
f 330/427/208 268/378/208 267/380/208
f 331/426/209 269/376/209 268/378/209
f 332/425/210 270/374/210 269/376/210
f 333/424/211 271/372/211 270/374/211
f 334/423/212 272/370/212 271/372/212
f 335/422/213 273/368/213 272/370/213
f 336/421/214 274/366/214 273/368/214
f 337/420/215 275/364/215 274/366/215
f 338/419/216 276/362/216 275/364/216
f 339/418/217 277/360/217 276/362/217
f 277/360/218 341/416/218 278/358/218
f 341/416/219 279/356/219 278/358/219
f 342/415/220 280/354/220 279/356/220
f 343/414/221 281/352/221 280/354/221
f 344/413/222 282/350/222 281/352/222
f 345/412/223 283/348/223 282/350/223
f 346/411/224 284/345/224 283/348/224
f 347/410/225 253/443/225 284/345/225
f 190/274/128 192/277/128 286/275/128
f 192/277/129 194/279/129 287/278/129
f 194/279/130 196/281/130 288/280/130
f 196/281/131 198/283/131 289/282/131
f 198/283/132 200/285/132 290/284/132
f 200/285/133 202/287/133 291/286/133
f 202/287/134 204/289/134 292/288/134
f 204/289/135 206/291/135 293/290/135
f 206/291/136 208/293/136 294/292/136
f 208/293/137 210/295/137 295/294/137
f 210/295/138 212/297/138 296/296/138
f 212/297/139 214/299/139 297/298/139
f 214/299/140 216/301/140 298/300/140
f 216/301/141 218/303/141 299/302/141
f 218/303/142 220/305/142 300/304/142
f 220/305/143 222/307/143 301/306/143
f 222/307/144 224/309/144 302/308/144
f 224/309/145 226/311/145 303/310/145
f 226/311/146 228/313/146 304/312/146
f 228/313/147 230/315/147 305/314/147
f 230/315/148 232/317/148 306/316/148
f 232/317/149 234/319/149 307/318/149
f 234/319/150 236/321/150 308/320/150
f 236/321/151 238/323/151 309/322/151
f 238/323/152 240/325/152 310/324/152
f 240/325/153 242/327/153 311/326/153
f 242/327/154 244/329/154 312/328/154
f 244/329/155 246/331/155 313/330/155
f 246/331/156 248/333/156 314/332/156
f 248/333/157 250/338/157 315/334/157
f 194/337/158 192/444/158 190/445/158
f 190/445/158 252/446/158 194/337/158
f 252/446/158 250/447/158 194/337/158
f 250/447/158 248/448/158 246/449/158
f 246/449/158 244/450/158 242/451/158
f 242/451/158 240/452/158 238/453/158
f 238/453/158 236/454/158 242/451/158
f 236/454/158 234/455/158 242/451/158
f 234/455/158 232/456/158 230/457/158
f 230/457/158 228/458/158 226/335/158
f 226/335/158 224/459/158 218/460/158
f 224/459/158 222/461/158 218/460/158
f 222/461/158 220/462/158 218/460/158
f 218/460/158 216/463/158 214/464/158
f 214/464/158 212/465/158 210/336/158
f 210/336/158 208/466/158 202/467/158
f 208/466/158 206/468/158 202/467/158
f 206/468/158 204/469/158 202/467/158
f 202/467/158 200/470/158 198/471/158
f 198/471/158 196/472/158 194/337/158
f 250/447/158 246/449/158 194/337/158
f 246/449/158 242/451/158 194/337/158
f 234/455/158 230/457/158 242/451/158
f 230/457/158 226/335/158 242/451/158
f 218/460/158 214/464/158 226/335/158
f 214/464/158 210/336/158 226/335/158
f 202/467/158 198/471/158 210/336/158
f 198/471/158 194/337/158 210/336/158
f 194/337/158 242/451/158 226/335/158
f 250/338/159 252/340/159 316/339/159
f 252/340/160 190/473/160 285/341/160
f 251/344/161 189/474/161 191/475/161
f 191/475/161 193/476/161 251/344/161
f 193/476/161 195/477/161 251/344/161
f 195/477/161 197/478/161 199/479/161
f 199/479/161 201/480/161 203/481/161
f 203/481/161 205/482/161 207/483/161
f 207/483/161 209/484/161 211/485/161
f 211/485/161 213/486/161 215/487/161
f 215/487/161 217/488/161 219/342/161
f 219/342/161 221/489/161 223/490/161
f 223/490/161 225/491/161 219/342/161
f 225/491/161 227/492/161 219/342/161
f 227/492/161 229/493/161 231/494/161
f 231/494/161 233/495/161 227/492/161
f 233/495/161 235/343/161 227/492/161
f 235/343/161 237/496/161 239/497/161
f 239/497/161 241/498/161 243/499/161
f 243/499/161 245/500/161 247/501/161
f 247/501/161 249/502/161 251/344/161
f 195/477/161 199/479/161 203/481/161
f 203/481/161 207/483/161 219/342/161
f 207/483/161 211/485/161 219/342/161
f 211/485/161 215/487/161 219/342/161
f 235/343/161 239/497/161 251/344/161
f 239/497/161 243/499/161 251/344/161
f 243/499/161 247/501/161 251/344/161
f 251/344/161 195/477/161 203/481/161
f 219/342/161 227/492/161 235/343/161
f 251/344/161 203/481/161 219/342/161
f 284/345/160 253/443/160 189/346/160
f 283/348/159 284/345/159 251/347/159
f 282/350/157 283/348/157 249/349/157
f 281/352/156 282/350/156 247/351/156
f 280/354/155 281/352/155 245/353/155
f 279/356/154 280/354/154 243/355/154
f 278/358/153 279/356/153 241/357/153
f 277/360/152 278/358/152 239/359/152
f 276/362/151 277/360/151 237/361/151
f 275/364/150 276/362/150 235/363/150
f 274/366/149 275/364/149 233/365/149
f 273/368/148 274/366/148 231/367/148
f 272/370/147 273/368/147 229/369/147
f 271/372/146 272/370/146 227/371/146
f 270/374/145 271/372/145 225/373/145
f 269/376/144 270/374/144 223/375/144
f 268/378/143 269/376/143 221/377/143
f 267/380/142 268/378/142 219/379/142
f 266/382/141 267/380/141 217/381/141
f 265/384/140 266/382/140 215/383/140
f 264/386/139 265/384/139 213/385/139
f 263/388/138 264/386/138 211/387/138
f 262/390/137 263/388/137 209/389/137
f 261/392/136 262/390/136 207/391/136
f 203/394/135 260/442/135 261/392/135
f 259/395/134 260/442/134 203/394/134
f 258/397/133 259/395/133 201/396/133
f 257/399/132 258/397/132 199/398/132
f 256/401/131 257/399/131 197/400/131
f 255/403/130 256/401/130 195/402/130
f 254/405/129 255/403/129 193/404/129
f 253/407/128 254/405/128 191/406/128
f 316/339/162 285/341/162 348/409/162
f 315/334/163 316/339/163 347/410/163
f 314/332/226 315/334/226 346/411/226
f 313/330/165 314/332/165 345/412/165
f 312/328/227 313/330/227 344/413/227
f 311/326/167 312/328/167 343/414/167
f 310/324/168 311/326/168 342/415/168
f 309/322/169 310/324/169 341/416/169
f 308/320/170 309/322/170 340/417/170
f 307/318/171 308/320/171 339/418/171
f 306/316/172 307/318/172 338/419/172
f 305/314/228 306/316/228 337/420/228
f 304/312/174 305/314/174 336/421/174
f 303/310/175 304/312/175 335/422/175
f 302/308/229 303/310/229 334/423/229
f 301/306/230 302/308/230 333/424/230
f 300/304/178 301/306/178 332/425/178
f 299/302/231 300/304/231 331/426/231
f 298/300/180 299/302/180 330/427/180
f 297/298/181 298/300/181 329/428/181
f 296/296/182 297/298/182 328/429/182
f 295/294/183 296/296/183 327/430/183
f 294/292/184 295/294/184 326/431/184
f 293/290/232 294/292/232 325/432/232
f 292/288/186 293/290/186 324/433/186
f 291/286/187 292/288/187 323/434/187
f 290/284/188 291/286/188 322/435/188
f 289/282/189 290/284/189 321/436/189
f 288/280/190 289/282/190 320/437/190
f 287/278/191 288/280/191 319/438/191
f 286/275/233 287/278/233 318/439/233
f 285/276/193 286/275/193 317/440/193
f 348/441/194 317/440/194 254/405/194
f 317/440/234 318/439/234 255/403/234
f 318/439/235 319/438/235 256/401/235
f 319/438/197 320/437/197 257/399/197
f 320/437/198 321/436/198 258/397/198
f 321/436/199 322/435/199 259/395/199
f 322/435/200 323/434/200 260/442/200
f 323/434/201 324/433/201 261/392/201
f 324/433/202 325/432/202 262/390/202
f 325/432/236 326/431/236 263/388/236
f 326/431/204 327/430/204 264/386/204
f 327/430/205 328/429/205 265/384/205
f 328/429/237 329/428/237 266/382/237
f 329/428/207 330/427/207 267/380/207
f 330/427/238 331/426/238 268/378/238
f 331/426/209 332/425/209 269/376/209
f 332/425/210 333/424/210 270/374/210
f 333/424/211 334/423/211 271/372/211
f 334/423/239 335/422/239 272/370/239
f 335/422/213 336/421/213 273/368/213
f 336/421/240 337/420/240 274/366/240
f 337/420/215 338/419/215 275/364/215
f 338/419/216 339/418/216 276/362/216
f 339/418/241 340/417/241 277/360/241
f 277/360/218 340/417/218 341/416/218
f 341/416/219 342/415/219 279/356/219
f 342/415/220 343/414/220 280/354/220
f 343/414/242 344/413/242 281/352/242
f 344/413/222 345/412/222 282/350/222
f 345/412/223 346/411/223 283/348/223
f 346/411/243 347/410/243 284/345/243
f 347/410/244 348/409/244 253/443/244
